<mxfile host="app.diagrams.net" modified="2023-06-13T11:33:07.395Z" agent="Mozilla/5.0 (Windows NT 10.0; Win64; x64) AppleWebKit/537.36 (KHTML, like Gecko) Chrome/114.0.0.0 Safari/537.36" etag="Id-P6ErJldRhJIZ1ZhWq" version="21.3.8" type="device">
  <diagram name="Page-1" id="0PYsJl6DdAl777HCZxJt">
    <mxGraphModel dx="880" dy="1653" grid="1" gridSize="10" guides="1" tooltips="1" connect="1" arrows="1" fold="1" page="1" pageScale="1" pageWidth="827" pageHeight="1169" math="0" shadow="0">
      <root>
        <mxCell id="0" />
        <mxCell id="1" parent="0" />
        <mxCell id="viE9CjBm_MY9zqnty7Wo-1" value="Department" style="rounded=0;whiteSpace=wrap;html=1;" vertex="1" parent="1">
          <mxGeometry x="40" y="90" width="120" height="60" as="geometry" />
        </mxCell>
        <mxCell id="viE9CjBm_MY9zqnty7Wo-7" value="Control" style="rhombus;whiteSpace=wrap;html=1;" vertex="1" parent="1">
          <mxGeometry x="280" y="75" width="90" height="90" as="geometry" />
        </mxCell>
        <mxCell id="viE9CjBm_MY9zqnty7Wo-8" value="1" style="endArrow=none;html=1;rounded=0;" edge="1" parent="1" target="viE9CjBm_MY9zqnty7Wo-7">
          <mxGeometry width="50" height="50" relative="1" as="geometry">
            <mxPoint x="161" y="120" as="sourcePoint" />
            <mxPoint x="280" y="80" as="targetPoint" />
            <Array as="points">
              <mxPoint x="200" y="120" />
            </Array>
          </mxGeometry>
        </mxCell>
        <mxCell id="viE9CjBm_MY9zqnty7Wo-9" value="" style="endArrow=none;html=1;rounded=0;exitX=1.008;exitY=0.633;exitDx=0;exitDy=0;exitPerimeter=0;" edge="1" parent="1">
          <mxGeometry width="50" height="50" relative="1" as="geometry">
            <mxPoint x="370" y="119" as="sourcePoint" />
            <mxPoint x="509" y="121" as="targetPoint" />
          </mxGeometry>
        </mxCell>
        <mxCell id="viE9CjBm_MY9zqnty7Wo-10" value="M" style="edgeLabel;html=1;align=center;verticalAlign=middle;resizable=0;points=[];" vertex="1" connectable="0" parent="viE9CjBm_MY9zqnty7Wo-9">
          <mxGeometry x="0.3679" y="-5" relative="1" as="geometry">
            <mxPoint as="offset" />
          </mxGeometry>
        </mxCell>
        <mxCell id="viE9CjBm_MY9zqnty7Wo-12" value="Project" style="rounded=0;whiteSpace=wrap;html=1;" vertex="1" parent="1">
          <mxGeometry x="510" y="90" width="120" height="60" as="geometry" />
        </mxCell>
        <mxCell id="viE9CjBm_MY9zqnty7Wo-17" value="Name" style="ellipse;whiteSpace=wrap;html=1;" vertex="1" parent="1">
          <mxGeometry x="10" y="15" width="70" height="45" as="geometry" />
        </mxCell>
        <mxCell id="viE9CjBm_MY9zqnty7Wo-18" value="&lt;u&gt;Number&lt;/u&gt;" style="ellipse;whiteSpace=wrap;html=1;" vertex="1" parent="1">
          <mxGeometry x="110" y="15" width="80" height="40" as="geometry" />
        </mxCell>
        <mxCell id="viE9CjBm_MY9zqnty7Wo-19" value="" style="endArrow=none;html=1;rounded=0;exitX=0.658;exitY=-0.05;exitDx=0;exitDy=0;exitPerimeter=0;entryX=0.5;entryY=1;entryDx=0;entryDy=0;" edge="1" parent="1" source="viE9CjBm_MY9zqnty7Wo-1" target="viE9CjBm_MY9zqnty7Wo-18">
          <mxGeometry width="50" height="50" relative="1" as="geometry">
            <mxPoint x="120" y="100" as="sourcePoint" />
            <mxPoint x="140" y="60" as="targetPoint" />
          </mxGeometry>
        </mxCell>
        <mxCell id="viE9CjBm_MY9zqnty7Wo-21" value="" style="endArrow=none;html=1;rounded=0;entryX=0.5;entryY=1;entryDx=0;entryDy=0;" edge="1" parent="1" target="viE9CjBm_MY9zqnty7Wo-17">
          <mxGeometry width="50" height="50" relative="1" as="geometry">
            <mxPoint x="80" y="90" as="sourcePoint" />
            <mxPoint x="50" y="70" as="targetPoint" />
          </mxGeometry>
        </mxCell>
        <mxCell id="viE9CjBm_MY9zqnty7Wo-22" value="" style="endArrow=none;html=1;rounded=0;" edge="1" parent="1">
          <mxGeometry width="50" height="50" relative="1" as="geometry">
            <mxPoint x="324" y="77" as="sourcePoint" />
            <mxPoint x="324" y="50" as="targetPoint" />
          </mxGeometry>
        </mxCell>
        <mxCell id="viE9CjBm_MY9zqnty7Wo-23" value="Date" style="ellipse;whiteSpace=wrap;html=1;" vertex="1" parent="1">
          <mxGeometry x="281" y="17" width="80" height="30" as="geometry" />
        </mxCell>
        <mxCell id="viE9CjBm_MY9zqnty7Wo-24" value="1" style="endArrow=none;html=1;rounded=0;entryX=0.5;entryY=1;entryDx=0;entryDy=0;" edge="1" parent="1" target="viE9CjBm_MY9zqnty7Wo-1">
          <mxGeometry width="50" height="50" relative="1" as="geometry">
            <mxPoint x="100" y="210" as="sourcePoint" />
            <mxPoint x="150" y="160" as="targetPoint" />
          </mxGeometry>
        </mxCell>
        <mxCell id="viE9CjBm_MY9zqnty7Wo-26" value="has" style="rhombus;whiteSpace=wrap;html=1;" vertex="1" parent="1">
          <mxGeometry x="61" y="210" width="80" height="80" as="geometry" />
        </mxCell>
        <mxCell id="viE9CjBm_MY9zqnty7Wo-27" value="m" style="endArrow=none;html=1;rounded=0;entryX=0.5;entryY=1;entryDx=0;entryDy=0;" edge="1" parent="1" target="viE9CjBm_MY9zqnty7Wo-26">
          <mxGeometry width="50" height="50" relative="1" as="geometry">
            <mxPoint x="102" y="353" as="sourcePoint" />
            <mxPoint x="152" y="303" as="targetPoint" />
          </mxGeometry>
        </mxCell>
        <mxCell id="viE9CjBm_MY9zqnty7Wo-28" value="Employee" style="rounded=0;whiteSpace=wrap;html=1;" vertex="1" parent="1">
          <mxGeometry x="44" y="355" width="120" height="60" as="geometry" />
        </mxCell>
        <mxCell id="viE9CjBm_MY9zqnty7Wo-29" value="&lt;u&gt;security number&lt;/u&gt;" style="ellipse;whiteSpace=wrap;html=1;" vertex="1" parent="1">
          <mxGeometry x="141" y="290" width="80" height="40" as="geometry" />
        </mxCell>
        <mxCell id="viE9CjBm_MY9zqnty7Wo-32" value="" style="endArrow=none;html=1;rounded=0;entryX=0.25;entryY=0.925;entryDx=0;entryDy=0;entryPerimeter=0;" edge="1" parent="1" target="viE9CjBm_MY9zqnty7Wo-29">
          <mxGeometry width="50" height="50" relative="1" as="geometry">
            <mxPoint x="135" y="352" as="sourcePoint" />
            <mxPoint x="180" y="302" as="targetPoint" />
          </mxGeometry>
        </mxCell>
        <mxCell id="viE9CjBm_MY9zqnty7Wo-33" value="sex" style="ellipse;whiteSpace=wrap;html=1;" vertex="1" parent="1">
          <mxGeometry x="10" y="300" width="70" height="30" as="geometry" />
        </mxCell>
        <mxCell id="viE9CjBm_MY9zqnty7Wo-34" value="" style="endArrow=none;html=1;rounded=0;" edge="1" parent="1">
          <mxGeometry width="50" height="50" relative="1" as="geometry">
            <mxPoint x="72" y="355" as="sourcePoint" />
            <mxPoint x="50" y="330" as="targetPoint" />
          </mxGeometry>
        </mxCell>
        <mxCell id="viE9CjBm_MY9zqnty7Wo-35" value="" style="endArrow=none;html=1;rounded=0;" edge="1" parent="1">
          <mxGeometry width="50" height="50" relative="1" as="geometry">
            <mxPoint x="164" y="399" as="sourcePoint" />
            <mxPoint x="234" y="399" as="targetPoint" />
          </mxGeometry>
        </mxCell>
        <mxCell id="viE9CjBm_MY9zqnty7Wo-36" value="" style="endArrow=none;html=1;rounded=0;" edge="1" parent="1" target="viE9CjBm_MY9zqnty7Wo-37">
          <mxGeometry width="50" height="50" relative="1" as="geometry">
            <mxPoint x="165" y="361" as="sourcePoint" />
            <mxPoint x="215" y="361" as="targetPoint" />
          </mxGeometry>
        </mxCell>
        <mxCell id="viE9CjBm_MY9zqnty7Wo-37" value="birhday" style="ellipse;whiteSpace=wrap;html=1;" vertex="1" parent="1">
          <mxGeometry x="195" y="340" width="75" height="40" as="geometry" />
        </mxCell>
        <mxCell id="viE9CjBm_MY9zqnty7Wo-38" value="salary" style="ellipse;whiteSpace=wrap;html=1;" vertex="1" parent="1">
          <mxGeometry x="230" y="390" width="80" height="40" as="geometry" />
        </mxCell>
        <mxCell id="viE9CjBm_MY9zqnty7Wo-42" value="" style="endArrow=none;html=1;rounded=0;exitX=0.5;exitY=1;exitDx=0;exitDy=0;" edge="1" parent="1" source="viE9CjBm_MY9zqnty7Wo-28">
          <mxGeometry width="50" height="50" relative="1" as="geometry">
            <mxPoint x="100" y="430" as="sourcePoint" />
            <mxPoint x="104" y="440" as="targetPoint" />
          </mxGeometry>
        </mxCell>
        <mxCell id="viE9CjBm_MY9zqnty7Wo-43" value="address" style="ellipse;whiteSpace=wrap;html=1;" vertex="1" parent="1">
          <mxGeometry x="64" y="440" width="80" height="40" as="geometry" />
        </mxCell>
        <mxCell id="viE9CjBm_MY9zqnty7Wo-46" value="" style="endArrow=none;html=1;rounded=0;" edge="1" parent="1">
          <mxGeometry width="50" height="50" relative="1" as="geometry">
            <mxPoint x="20" y="570" as="sourcePoint" />
            <mxPoint x="44" y="410" as="targetPoint" />
            <Array as="points">
              <mxPoint x="20" y="410" />
            </Array>
          </mxGeometry>
        </mxCell>
        <mxCell id="viE9CjBm_MY9zqnty7Wo-49" value="" style="endArrow=none;html=1;rounded=0;" edge="1" parent="1">
          <mxGeometry width="50" height="50" relative="1" as="geometry">
            <mxPoint x="160" y="570" as="sourcePoint" />
            <mxPoint x="160" y="414" as="targetPoint" />
          </mxGeometry>
        </mxCell>
        <mxCell id="viE9CjBm_MY9zqnty7Wo-50" value="Supervise" style="rhombus;whiteSpace=wrap;html=1;" vertex="1" parent="1">
          <mxGeometry x="22" y="517" width="138" height="100" as="geometry" />
        </mxCell>
        <mxCell id="viE9CjBm_MY9zqnty7Wo-51" value="" style="endArrow=none;html=1;rounded=0;" edge="1" parent="1" target="viE9CjBm_MY9zqnty7Wo-52">
          <mxGeometry width="50" height="50" relative="1" as="geometry">
            <mxPoint x="164" y="384.5" as="sourcePoint" />
            <mxPoint x="520" y="380" as="targetPoint" />
          </mxGeometry>
        </mxCell>
        <mxCell id="viE9CjBm_MY9zqnty7Wo-53" value="n" style="edgeLabel;html=1;align=center;verticalAlign=middle;resizable=0;points=[];" vertex="1" connectable="0" parent="viE9CjBm_MY9zqnty7Wo-51">
          <mxGeometry x="0.2744" y="2" relative="1" as="geometry">
            <mxPoint as="offset" />
          </mxGeometry>
        </mxCell>
        <mxCell id="viE9CjBm_MY9zqnty7Wo-52" value="Work" style="rhombus;whiteSpace=wrap;html=1;" vertex="1" parent="1">
          <mxGeometry x="550" y="345" width="80" height="80" as="geometry" />
        </mxCell>
        <mxCell id="viE9CjBm_MY9zqnty7Wo-54" value="" style="endArrow=none;html=1;rounded=0;entryX=0.65;entryY=1.083;entryDx=0;entryDy=0;entryPerimeter=0;" edge="1" parent="1" source="viE9CjBm_MY9zqnty7Wo-52" target="viE9CjBm_MY9zqnty7Wo-12">
          <mxGeometry width="50" height="50" relative="1" as="geometry">
            <mxPoint x="540" y="345" as="sourcePoint" />
            <mxPoint x="590" y="160" as="targetPoint" />
            <Array as="points" />
          </mxGeometry>
        </mxCell>
        <mxCell id="viE9CjBm_MY9zqnty7Wo-55" value="m" style="edgeLabel;html=1;align=center;verticalAlign=middle;resizable=0;points=[];" vertex="1" connectable="0" parent="viE9CjBm_MY9zqnty7Wo-54">
          <mxGeometry x="0.1174" y="2" relative="1" as="geometry">
            <mxPoint as="offset" />
          </mxGeometry>
        </mxCell>
        <mxCell id="viE9CjBm_MY9zqnty7Wo-56" value="" style="endArrow=none;html=1;rounded=0;" edge="1" parent="1">
          <mxGeometry width="50" height="50" relative="1" as="geometry">
            <mxPoint x="164" y="410" as="sourcePoint" />
            <mxPoint x="210" y="410" as="targetPoint" />
          </mxGeometry>
        </mxCell>
        <mxCell id="viE9CjBm_MY9zqnty7Wo-58" value="Relationship" style="shape=rhombus;double=1;perimeter=rhombusPerimeter;whiteSpace=wrap;html=1;align=center;" vertex="1" parent="1">
          <mxGeometry x="160" y="617" width="120" height="60" as="geometry" />
        </mxCell>
        <mxCell id="viE9CjBm_MY9zqnty7Wo-60" value="" style="endArrow=none;html=1;rounded=0;entryX=0.433;entryY=0.033;entryDx=0;entryDy=0;entryPerimeter=0;" edge="1" parent="1" target="viE9CjBm_MY9zqnty7Wo-58">
          <mxGeometry relative="1" as="geometry">
            <mxPoint x="210" y="409.5" as="sourcePoint" />
            <mxPoint x="200" y="610" as="targetPoint" />
          </mxGeometry>
        </mxCell>
        <mxCell id="viE9CjBm_MY9zqnty7Wo-63" value="" style="shape=link;html=1;rounded=0;" edge="1" parent="1" target="viE9CjBm_MY9zqnty7Wo-65">
          <mxGeometry relative="1" as="geometry">
            <mxPoint x="220" y="677" as="sourcePoint" />
            <mxPoint x="220" y="750" as="targetPoint" />
          </mxGeometry>
        </mxCell>
        <mxCell id="viE9CjBm_MY9zqnty7Wo-64" value="N" style="resizable=0;html=1;whiteSpace=wrap;align=right;verticalAlign=bottom;" connectable="0" vertex="1" parent="viE9CjBm_MY9zqnty7Wo-63">
          <mxGeometry x="1" relative="1" as="geometry" />
        </mxCell>
        <mxCell id="viE9CjBm_MY9zqnty7Wo-65" value="Dependent" style="shape=ext;margin=3;double=1;whiteSpace=wrap;html=1;align=center;" vertex="1" parent="1">
          <mxGeometry x="170" y="730" width="100" height="40" as="geometry" />
        </mxCell>
        <mxCell id="viE9CjBm_MY9zqnty7Wo-66" value="" style="endArrow=none;html=1;rounded=0;" edge="1" parent="1">
          <mxGeometry width="50" height="50" relative="1" as="geometry">
            <mxPoint x="130" y="740" as="sourcePoint" />
            <mxPoint x="170" y="740" as="targetPoint" />
          </mxGeometry>
        </mxCell>
        <mxCell id="viE9CjBm_MY9zqnty7Wo-67" value="Name" style="ellipse;whiteSpace=wrap;html=1;" vertex="1" parent="1">
          <mxGeometry x="40" y="727" width="90" height="30" as="geometry" />
        </mxCell>
        <mxCell id="viE9CjBm_MY9zqnty7Wo-68" value="" style="endArrow=none;html=1;rounded=0;" edge="1" parent="1">
          <mxGeometry width="50" height="50" relative="1" as="geometry">
            <mxPoint x="206" y="850" as="sourcePoint" />
            <mxPoint x="206" y="770" as="targetPoint" />
          </mxGeometry>
        </mxCell>
        <mxCell id="viE9CjBm_MY9zqnty7Wo-70" value="sex" style="ellipse;whiteSpace=wrap;html=1;" vertex="1" parent="1">
          <mxGeometry x="150" y="850" width="110" height="40" as="geometry" />
        </mxCell>
        <mxCell id="viE9CjBm_MY9zqnty7Wo-73" value="" style="endArrow=none;html=1;rounded=0;" edge="1" parent="1">
          <mxGeometry width="50" height="50" relative="1" as="geometry">
            <mxPoint x="290" y="800" as="sourcePoint" />
            <mxPoint x="270" y="770" as="targetPoint" />
          </mxGeometry>
        </mxCell>
        <mxCell id="viE9CjBm_MY9zqnty7Wo-74" value="birthday" style="ellipse;whiteSpace=wrap;html=1;" vertex="1" parent="1">
          <mxGeometry x="264" y="798" width="90" height="50" as="geometry" />
        </mxCell>
        <mxCell id="viE9CjBm_MY9zqnty7Wo-75" value="" style="endArrow=none;html=1;rounded=0;" edge="1" parent="1">
          <mxGeometry width="50" height="50" relative="1" as="geometry">
            <mxPoint x="590" y="475" as="sourcePoint" />
            <mxPoint x="590" y="425" as="targetPoint" />
          </mxGeometry>
        </mxCell>
        <mxCell id="viE9CjBm_MY9zqnty7Wo-76" value="HPW" style="ellipse;whiteSpace=wrap;html=1;" vertex="1" parent="1">
          <mxGeometry x="530" y="480" width="120" height="80" as="geometry" />
        </mxCell>
        <mxCell id="viE9CjBm_MY9zqnty7Wo-77" value="" style="endArrow=none;html=1;rounded=0;" edge="1" parent="1">
          <mxGeometry width="50" height="50" relative="1" as="geometry">
            <mxPoint x="520" y="90" as="sourcePoint" />
            <mxPoint x="520" y="60" as="targetPoint" />
          </mxGeometry>
        </mxCell>
        <mxCell id="viE9CjBm_MY9zqnty7Wo-78" value="Location" style="ellipse;whiteSpace=wrap;html=1;" vertex="1" parent="1">
          <mxGeometry x="470" y="10" width="100" height="50" as="geometry" />
        </mxCell>
        <mxCell id="viE9CjBm_MY9zqnty7Wo-79" value="" style="endArrow=none;html=1;rounded=0;" edge="1" parent="1">
          <mxGeometry width="50" height="50" relative="1" as="geometry">
            <mxPoint x="600" y="90" as="sourcePoint" />
            <mxPoint x="650" y="40" as="targetPoint" />
          </mxGeometry>
        </mxCell>
        <mxCell id="viE9CjBm_MY9zqnty7Wo-80" value="Number" style="ellipse;whiteSpace=wrap;html=1;" vertex="1" parent="1">
          <mxGeometry x="640" y="-20" width="120" height="80" as="geometry" />
        </mxCell>
        <mxCell id="viE9CjBm_MY9zqnty7Wo-81" value="" style="endArrow=none;html=1;rounded=0;" edge="1" parent="1">
          <mxGeometry width="50" height="50" relative="1" as="geometry">
            <mxPoint x="630" y="120" as="sourcePoint" />
            <mxPoint x="670" y="120" as="targetPoint" />
          </mxGeometry>
        </mxCell>
        <mxCell id="viE9CjBm_MY9zqnty7Wo-82" value="Name" style="ellipse;whiteSpace=wrap;html=1;" vertex="1" parent="1">
          <mxGeometry x="670" y="80" width="120" height="80" as="geometry" />
        </mxCell>
      </root>
    </mxGraphModel>
  </diagram>
</mxfile>
